
<global>
amp_veltrack=0
ampeg_attack=0.01
ampeg_release=0.50
</global>

<group>
group_label=Group_0-45
lpc_hicc1=42
lpc_locc1=0

<region>
hikey=a#3
hivel=127
lokey=a3
loop_end=274727
loop_mode=loop_continuous
loop_start=89304
loop_xfade=22468
lovel=1
lpc=c5YBQt8kqsInqKBCdiz3wXaSRj8jrn0/GUAPQXQa+8CIcpo/mOLDv3w0p79PzedAUab1wKySyT9zNyxANWk/P2LC9r90WuC/OpSrP1Zv4D5jUfo/Yi+SwHPYjEBiGei/
lpc_rms=-23.65
offset=1997
pitch_keycenter=a#3
sample=Cor_trill_wholetone_PP_A#3.opus
</region>

<region>
hikey=a#4
hivel=127
lokey=a4
loop_end=276130
loop_mode=loop_continuous
loop_start=89760
loop_xfade=22583
lovel=1
lpc=HrgMQiKAu8Ji+rdCtaUFwlNShcFx8dhBNQ6PwJrwzMCTeTA/i2UDwJfBoT/5Wrw/xbLLvBf3MsCptyRBm7xJwbmsBEFeFLHAkCqkP9LNF0AHQp3AF7oIQa8X88BmPzhA
lpc_rms=-23.60
offset=10496
pitch_keycenter=a#4
sample=Cor_trill_wholetone_PP_A#4.opus
</region>

<region>
hikey=c4
hivel=127
lokey=b3
loop_end=263807
loop_mode=loop_continuous
loop_start=85755
loop_xfade=21575
lovel=1
lpc=mnUzQgaW8MJgmeJCOXUowiEdrL9jKilBXV7dvzCpxkC8YpvBnEB8QbTRBMH3Vwk/xu2pPm0CwkBIIVbAbHslPgsNecDFsMhAKG/PwBVqAEGScwvBRMPoQHJfmcAIP9E/
lpc_rms=-21.26
offset=752
pitch_keycenter=c4
sample=Cor_trill_wholetone_PP_C4.opus
</region>

<region>
hikey=c5
hivel=127
lokey=b4
loop_end=265066
loop_mode=loop_continuous
loop_start=86164
loop_xfade=21678
lovel=1
lpc=Bv0aQjSIrMJIgopCAht0wbr+tMGYgNxBlfd4wc7+j0F4xYjBn8woQTpe88C5RSRA5VwuQNY82cCxZeJAMSmawMgKyUBswErASRq7vncM5D+IYADAGFJWQLYl/MDi9NRA
lpc_rms=-24.88
offset=2209
pitch_keycenter=c5
sample=Cor_trill_wholetone_PP_C5.opus
</region>

<region>
hivel=127
key=d#5
loop_end=274137
loop_mode=loop_continuous
loop_start=89113
loop_xfade=22419
lovel=1
lpc=YpTsQanmesIcV09CbJC5wTKr8kAzlsLAjy0aQQQhzb0w4sjA1/vpQNjZ8cBvoeU/taeOQK9FtcDk3K9ABctbv9m3DMAMky5AGNANwEOkvT8twlg+dI/EP3WaTMDIxylA
lpc_rms=-24.36
offset=1772
sample=Cor_trill_wholetone_PP_D#5.opus
</region>

<region>
hikey=d4
hivel=127
lokey=c#4
loop_end=261928
loop_mode=loop_continuous
loop_start=85144
loop_xfade=21421
lovel=1
lpc=0MT5QUAIm8Juh4NCaKy4wYYgBUDaDeFAYVQOwd1xQUGryeDAGY/dwHdf5kCdYWHAZxGQvR0fA0DCTitAd0HZv31QP8D417FAV7KSwC9QjD+D092/Z3I9QN+r6r+VukI/
lpc_rms=-21.80
offset=644
pitch_keycenter=d4
sample=Cor_trill_wholetone_PP_D4.opus
</region>

<region>
hikey=d5
hivel=127
lokey=c#5
loop_end=276066
loop_mode=loop_continuous
loop_start=89740
loop_xfade=22577
lovel=1
lpc=4fQIQq+1oMK0ToxCSavEwRn9HcHQIJBB+tjwwAdqMkH4OizBIGSTP7p5mcDbhBRBAb2rwAhdGMADILhAM3EDP40a/b/RG7g/l6JsPylsj8AFYd095PNLQIm99r53xOo+
lpc_rms=-21.81
offset=15676
pitch_keycenter=D5
sample=Cor_trill_wholetone_PP_D5.opus
</region>

<region>
hivel=127
key=e3
loop_end=268491
loop_mode=loop_continuous
loop_start=87277
loop_xfade=21958
lovel=1
lpc=t6kqQiLgzMLltqdCJx79wTmfEkGfHbHAvcF5QTP4XMGIYhRBz8phwfYlVEGR3wTBfi1PwLuBKEFUrc3AP+VpQD/k3rw96njAry/OP7HSQECOQizAapVpPrFgpr/lzsI/
lpc_rms=-22.46
offset=994
sample=Cor_trill_wholetone_PP_E3.opus
</region>

<region>
hikey=e4
hivel=127
lokey=d#4
loop_end=274772
loop_mode=loop_continuous
loop_start=89319
loop_xfade=22471
lovel=1
lpc=6GscQp51yMIlbKdCN682wYbR9cGXPfZBwcAFwcN01T8/WIbAD65vP5q81MB8Xtc/MIcXQeWWn8CckuTAqgRKQVoElcD1YJ4/Q1tzwIKDzD/qNNC/UltJPrObDUCICCO/
lpc_rms=-23.34
offset=19091
pitch_keycenter=e4
sample=Cor_trill_wholetone_PP_E4.opus
</region>

<region>
hikey=f#3
hivel=127
lokey=f3
loop_end=258772
loop_mode=loop_continuous
loop_start=84118
loop_xfade=21163
lovel=1
lpc=eVEtQh3E5MIAGN5CxH5AwictVUAeacg/TkhSQeDpnz9k183BaQ61QV2VH8EBZ1NAjIywwP0KlkAujz1AZ8UDQPHc0cCzyoe/r/hLQPfNnb4NUNC/RrJKPyHsL0Dr/gHA
lpc_rms=-22.40
offset=8011
pitch_keycenter=f#3
sample=Cor_trill_wholetone_PP_F#3.opus
</region>

<region>
hikey=f#4
hivel=127
lokey=f4
loop_end=275419
loop_mode=loop_continuous
loop_start=89529
loop_xfade=22524
lovel=1
lpc=Xb9rQhXIHsNskSNDfae7wn6GHULJDojB9C+YQabG/z/279rBy7GTQSCcuD+QoODAuUDOwKOEEEE4w/I/yZ2dv+snB8H5oZFB2TtKwT/xycB2J29BhowMwFAFR8FT0/lA
lpc_rms=-19.99
offset=5390
pitch_keycenter=f#4
sample=Cor_trill_wholetone_PP_F#4.opus
</region>

<region>
hikey=f5
hivel=127
lokey=e5
loop_end=259566
loop_mode=loop_continuous
loop_start=84376
loop_xfade=21228
lovel=1
lpc=idLvQbPZkMJENYdCd7WNwc9pzcFF/uVBi/iwvVDGXsHJapRAKG4mQWktYsGsWWdA+2cAQcRZWMEg0GFBQ5ZLwIk7FMFFHihBu7wHQBu7KMGRsptA0xCNQDbvo8DJrSNA
lpc_rms=-25.46
offset=661
pitch_keycenter=f5
sample=Cor_trill_wholetone_PP_F5.opus
</region>

<region>
hikey=g#3
hivel=127
lokey=g3
loop_end=275171
loop_mode=loop_continuous
loop_start=89449
loop_xfade=22504
lovel=1
lpc=0UwMQkhHssIk+aBCw6rYwbh+EMGjzWpBKDe/wLFlEUHE8zTB1Y8kQRkwQ8H7HeVAC2CVwFIzjT+vHbVAlEZiwIasZj+kTde/mLOWP9U/AD5j09K/+W1WPUN4JUCoLK2/
lpc_rms=-23.64
offset=3506
pitch_keycenter=g#3
sample=Cor_trill_wholetone_PP_G#3.opus
</region>

<region>
hikey=g#4
hivel=127
lokey=g4
loop_end=266490
loop_mode=loop_continuous
loop_start=86627
loop_xfade=21794
lovel=1
lpc=ff9CQiAX9ML1sfFCcsCHwokTlkHOpd8+ndu9QNr8UT+7B7fAegzyQBrgQcF5vQFBXwcGwecwpUAkYfRA8P88wR6k80DYIa+/K/0BwMFabzxOa1ZAJjFIwK0cHcCVJ2tA
lpc_rms=-21.12
offset=13031
pitch_keycenter=g#4
sample=Cor_trill_wholetone_PP_G#4.opus
</region>

<region>
hikey=C6
hivel=127
lokey=f#5
loop_end=97498
loop_mode=loop_continuous
loop_start=31693
loop_xfade=7973
lovel=1
lpc=Oh+ZQuL3PMPumkVDOvO3wmb9YcEgJTdC998MwRcPLcFCRenAp/rMQdU5rsEgFZRALzmDQEvtVEBno7dAzmolwWF8+D4F6I9AVakoQEqJ5cDRxKpAQfvEQEDcPMDvCRDA
lpc_rms=-18.50
offset=1207
pitch_keycenter=G5
sample=Cor_trill_wholetone_PP_G5.opus
</region>
</group>

<group>
group_label=Group_46-90
lpc_hicc1=84
lpc_locc1=43

<region>
hikey=a#3
hivel=127
lokey=a3
loop_end=280761
loop_mode=loop_continuous
loop_start=91266
loop_xfade=22961
lovel=1
lpc=E5PmQbZoksKkCoJCStqvwQV6ub6KH/w/llWxQLq1EMFB9bhAKlbyvzIGWcC5/+1A7HrAwDoKwT5Kqk5Am3Rkv/MSrD46EA7AJZ3Vv6SZlUAYpD/Ag1sYQBfbar/sO56+
lpc_rms=-21.32
offset=14027
pitch_keycenter=a#3
sample=Cor_trill_wholetone_MF_A#3.opus
</region>

<region>
hikey=a#4
hivel=127
lokey=a4
loop_end=283107
loop_mode=loop_continuous
loop_start=92029
loop_xfade=23153
lovel=1
lpc=skIaQvFC2cIPGOZCUNRawhkt10Dp5VVA6PACQehtFMFFgFa/vzVIQD5btr+rTBLAQ2aaQMwzncCtHQhBo7bBwF4wvT33qJi8nJ0lwFgszEAJngnBFKF3Qa1kgME4HsRA
lpc_rms=-18.29
offset=14474
pitch_keycenter=a#4
sample=Cor_trill_wholetone_MF_A#4.opus
</region>

<region>
hikey=c4
hivel=127
lokey=b3
loop_end=274795
loop_mode=loop_continuous
loop_start=89326
loop_xfade=22473
lovel=1
lpc=gKEbQupJ2MKbW+NCedJewsS4/EDa+1ZBzIBvwWt7HUEFcurA1XqrP5YFzT5iYsNA7RXDwGo800B0vCHBREmeQC83RsA3NZ9AKcqTv350uL800J8/WF2CwJYG3UA8+WjA
lpc_rms=-18.25
offset=4522
pitch_keycenter=c4
sample=Cor_trill_wholetone_MF_C4.opus
</region>

<region>
hikey=c5
hivel=127
lokey=b4
loop_end=272038
loop_mode=loop_continuous
loop_start=88430
loop_xfade=22248
lovel=1
lpc=RvQvQllz1cJxfcZChRc9wokxQkHetgJAJ5WnvhKdxkB3RXrB+EmCQaDwVcHU9glBQ6oQwb6uFkEoIYM/F+/lwEpOC0EfHhPBHjuHQBVBjEBnexDBbb0pQdGaM8FxJ9hA
lpc_rms=-19.59
offset=2517
pitch_keycenter=c5
sample=Cor_trill_wholetone_MF_C5.opus
</region>

<region>
hivel=127
key=d#5
loop_end=268700
loop_mode=loop_continuous
loop_start=87345
loop_xfade=21975
lovel=1
lpc=QOPrQartiMLvxG5CCIhYwbwYk8EfFpVBoBuXwNOvZEBCiMTAe9imQGDHlr8xC/HAx6pAQeZ5B8FtMcVAWjs3v/yJ2L/jsRTAH0YrQfGrTcEl5IJASP4BPwQGWEArr6G/
lpc_rms=-20.16
offset=796
sample=Cor_trill_wholetone_MF_D#5.opus
</region>

<region>
hikey=d4
hivel=127
lokey=c#4
loop_end=283744
loop_mode=loop_continuous
loop_start=92236
loop_xfade=23205
lovel=1
lpc=DAf6QWtLosJXMY9CqyGlwfOYmcDvIwpBRwNWwIQzsb8HCjRAEf/4wDPRm0BhcoNAMjW2wN6bnT+JwzFAe2B4v/zpJ8D51q8/hZe+P02A278Tod6/Iiy+QPXup8By1s8/
lpc_rms=-18.00
offset=16671
pitch_keycenter=d4
sample=Cor_trill_wholetone_MF_D4.opus
</region>

<region>
hikey=d5
hivel=127
lokey=c#5
loop_end=283743
loop_mode=loop_continuous
loop_start=92235
loop_xfade=23205
lovel=1
lpc=eUwPQvSJrsLtMZpCq4PXwU83/L+Q+e5Aatt3wE9hxECK5R6/V3v3wCI8HMC+lBxB8buiv2A3kMDcS7g/vZeGQLX7JMB4ukFAU2d9wLGOfMB/6r5AAF2cPwzVOMAQirc/
lpc_rms=-17.62
offset=17860
pitch_keycenter=D5
sample=Cor_trill_wholetone_MF_D5.opus
</region>

<region>
hivel=127
key=e3
loop_end=273831
loop_mode=loop_continuous
loop_start=89013
loop_xfade=22394
lovel=1
lpc=IdkxQu1s2sLf3bFCOMHEwQN8YcBCx44/h1RjQc6AOsEaH91A9+BawTtvPkEJVcHAcaOEwPJe+UBVFuC/3MiCQHEE1cB9vatAtcufwEi2EkB28o4/D4efvxB2mb/iuK8/
lpc_rms=-21.34
offset=996
sample=Cor_trill_wholetone_MF_E3.opus
</region>

<region>
hikey=e4
hivel=127
lokey=d#4
loop_end=270355
loop_mode=loop_continuous
loop_start=87883
loop_xfade=22110
lovel=1
lpc=pzEOQuH4wMIPyLdCorXRwXYKpMGLqtNB6Aj3wC4aYMDDckQ/vgMtQLAVHMG6zi9BXrQ9Ph9fHcGCP51Aw0ufQAgotMCqjJlAsR/bv8GxgMAA4SRAF1cLvx/imD9I/Ze+
lpc_rms=-18.86
offset=524
pitch_keycenter=e4
sample=Cor_trill_wholetone_MF_E4.opus
</region>

<region>
hikey=f#3
hivel=127
lokey=f3
loop_end=277146
loop_mode=loop_continuous
loop_start=90091
loop_xfade=22666
lovel=1
lpc=BK0xQv3O88LcdflCJR9qwhpAFUHOmkHALaubQefgIcE/Bo/B0BKzQSN2H8HFFQdA5iX3wNJaM0F9vUU/L3SYwBPWuT5v6EbAQkuAQKzQSsDrPJNAismnwEgzk0Bhv+i/
lpc_rms=-20.71
offset=5588
pitch_keycenter=f#3
sample=Cor_trill_wholetone_MF_F#3.opus
</region>

<region>
hikey=f#4
hivel=127
lokey=f4
loop_end=258490
loop_mode=loop_continuous
loop_start=84026
loop_xfade=21140
lovel=1
lpc=7s+GQgdoOcOoPz9DnK3YwrJ/a0JqsSHCGwcKQlcqF8HHEuLBgQPNQclDhcDRvQpB0oS6wdablEGZW5U/bWovwWv7Qz6EmDNBESiUwG9JHME8Un9BGk2ywNiN8cCwAK5A
lpc_rms=-15.41
offset=957
pitch_keycenter=f#4
sample=Cor_trill_wholetone_MF_F#4.opus
</region>

<region>
hikey=f5
hivel=127
lokey=e5
loop_end=258126
loop_mode=loop_continuous
loop_start=83908
loop_xfade=21110
lovel=1
lpc=SPa1QQamW8JsWT9CEiPpwPC1eMF9UsRATgcZQcWDwMB1ZuzAsWNSQX43lMCjawHBjtpSQbpXVMEGblhBdYfXwNE927/RYlw/QVgRQfADPcHu5ypAbVOtQAT9csAGH5I/
lpc_rms=-20.30
offset=407
pitch_keycenter=f5
sample=Cor_trill_wholetone_MF_F5.opus
</region>

<region>
hikey=g#3
hivel=127
lokey=g3
loop_end=281860
loop_mode=loop_continuous
loop_start=91623
loop_xfade=23051
lovel=1
lpc=EogXQkgb0sJPUN1CsblVwm9+PED3zGJBtVPDwCqLf0ChRGXB5IOKQWseHsH2rcNAyHz2wLuKiUDOhyA/h1VKv80mvj6oOorAP4qsQPx+xb+jhWpA/1yOwNbbD784J8Q/
lpc_rms=-20.79
offset=15090
pitch_keycenter=g#3
sample=Cor_trill_wholetone_MF_G#3.opus
</region>

<region>
hikey=g#4
hivel=127
lokey=g4
loop_end=269663
loop_mode=loop_continuous
loop_start=87658
loop_xfade=22054
lovel=1
lpc=8q4qQnhe+cKMbQ1DWD+WwiTWMUHiVuBAq9YDQfsCjsHr7h9Ao9uOQY79tsG3vYVB8AHMwCz92sCjg1BBmgL/wLb6cUALXBrBztpqQb7EFcEfLLdA+RYGv4bmBsEjAb9A
lpc_rms=-17.62
offset=5419
pitch_keycenter=g#4
sample=Cor_trill_wholetone_MF_G#4.opus
</region>

<region>
hikey=C6
hivel=127
lokey=f#5
loop_end=107142
loop_mode=loop_continuous
loop_start=34828
loop_xfade=8762
lovel=1
lpc=9M6EQusFJMNAXzBDuHGuwqIHk8HoimNCArCRwYHP5r/x5YLBlsvuQXO8xMF89IRAK8HkQJnxbUCpYIhAJZpFwayZ5ED3C1PA2jagP558B8BNoOxApS+fQO7VA8FpXn4/
lpc_rms=-17.04
pitch_keycenter=G5
sample=Cor_trill_wholetone_MF_G5.opus
</region>
</group>

<group>
group_label=Group_91-127
lpc_hicc1=127
lpc_locc1=85

<region>
hikey=a#3
hivel=127
lokey=a3
loop_end=271187
loop_mode=loop_continuous
loop_start=88154
loop_xfade=22178
lovel=1
lpc=PwkJQlKltsJaUrRCKPQgwifQ5ED5HSU/OpSGQKc3pcAvFVw/mQnaPYbycMDwfRlB5IIDwUGQJEAeZLo/+yzIvxj/oL0jFqW/vaJaQGwiYMAlNU5Aq3EhwMGCAkDybYW/
lpc_rms=-16.85
offset=5290
pitch_keycenter=a#3
sample=Cor_trill_wholetone_FF_A#3.opus
</region>

<region>
hikey=a#4
hivel=127
lokey=a4
loop_end=276881
loop_mode=loop_continuous
loop_start=90005
loop_xfade=22644
lovel=1
lpc=ZfXyQbAJo8KshqdCG9MrwgGUPkGzA16/P4iNQI1qa8BHCVzAfBGTQH2+rMC1HL1ANiA4v2feM8CFQPY/Fm7DvlFeir+MnmU+sU4vQGdGG8BIlv0/gm9MP3YNucBrQXhA
lpc_rms=-19.55
offset=12913
pitch_keycenter=a#4
sample=Cor_trill_wholetone_FF_A#4.opus
</region>

<region>
hikey=c4
hivel=127
lokey=b3
loop_end=268107
loop_mode=loop_continuous
loop_start=87152
loop_xfade=21926
lovel=1
lpc=LEQOQoMxvMIzVqxC5RzTwU6L1sCPaC9BVVk9Pv0ELMEUcdtAzACawHjUoUCAzSJAbcliwIjNnsBCeQRBhSDev0Ngl8AYUfo/aYcYvxkZxUDXkafAF3nAv0/7Z0CxHrK/
lpc_rms=-16.43
offset=622
pitch_keycenter=c4
sample=Cor_trill_wholetone_FF_C4.opus
</region>

<region>
hikey=c5
hivel=127
lokey=b4
loop_end=282760
loop_mode=loop_continuous
loop_start=91916
loop_xfade=23125
lovel=1
lpc=C+M9Qn4b9cI/JutCuBBWwmegVkEdTzU/rEq2P1zP2D4CxwjBI8wHQWnI1cDBWJZAsKExwLcPhb9To7pAtyiUvx2Fm7+cx10/vmy9wKLeFUFlsZTA+trWvli/E8AOpG9A
lpc_rms=-15.54
offset=15699
pitch_keycenter=c5
sample=Cor_trill_wholetone_FF_C5.opus
</region>

<region>
hikey=e5
hivel=127
lokey=d#5
loop_end=264998
loop_mode=loop_continuous
loop_start=86142
loop_xfade=21672
lovel=1
lpc=kpoIQvsJqsKiNp1C3O/ZwUmgCUBa9tLA1HJHQRyJFsH58RtAYICOQDjxnsBhC/0+U4ibQJFcsMDogUxA02YAQHEvu8AKn4BAndxXQAE2+cCtUQZB342jwLWOUL7YfyVA
lpc_rms=-17.63
offset=128
pitch_keycenter=d#5
sample=Cor_trill_wholetone_FF_D#5.opus
</region>

<region>
hikey=d4
hivel=127
lokey=c#4
loop_end=267918
loop_mode=loop_continuous
loop_start=87091
loop_xfade=21911
lovel=1
lpc=SynLQVYDhMINYW9CMTWjwUMVWz82EWFA6fwEwDVqoL/Sn+Q/jrjJwBkn90Ag0B3Aeuq8P089KcDhlqk/HOwLQILUfMAWzIw+nWfgP/MH2z/ph3PAxagCQEl3MbpTe0G+
lpc_rms=-17.95
offset=324
pitch_keycenter=d4
sample=Cor_trill_wholetone_FF_D4.opus
</region>

<region>
hikey=d5
hivel=127
lokey=c#5
loop_end=278110
loop_mode=loop_continuous
loop_start=90404
loop_xfade=22744
lovel=1
lpc=tXgQQkMzxMJwFdJC/cFPwnU5iEBFTzxBiAw3wPq7h8Alm3VABtu8wOHII0C1JI5AYuEMwJqkS8D0tNVAAbOAwGOtiT5Q7F09OsBlwJM5NUHokj7BI4wDQcOL2sDXEIdA
lpc_rms=-15.79
offset=15480
pitch_keycenter=D5
sample=Cor_trill_wholetone_FF_D5.opus
</region>

<region>
hivel=127
key=e3
loop_end=272640
loop_mode=loop_continuous
loop_start=88626
loop_xfade=22297
lovel=1
lpc=3XkPQh3jtcLqoZtCrT6YwRs+C8GBYZFAbIgpQVfqvMHH0N5B5eqtwZXEVEEMVw3BZbucQMPUkMA6XslAwVGBwH9hqT/oEi6+yLicP7O2T7/cTDm/HlwHv9l5/L3nmoo/
lpc_rms=-16.67
offset=711
sample=Cor_trill_wholetone_FF_E3.opus
</region>

<region>
hikey=e4
hivel=127
lokey=d#4
loop_end=273213
loop_mode=loop_continuous
loop_start=88812
loop_xfade=22344
lovel=1
lpc=rZ8AQqTJscKBsrtC4Vc+wtiHtUAGK4BBDIkTwe+q4cC7NiRBy9ZFwe0POUFXhp7AZ5JfQJ1NUMDyoRdAvOw/P36lBMFecCpB5rO+wKgmK0D66HLAfD1vQIwxNL/6Q4K+
lpc_rms=-17.44
offset=6594
pitch_keycenter=e4
sample=Cor_trill_wholetone_FF_E4.opus
</region>

<region>
hikey=f#3
hivel=127
lokey=f3
loop_end=283744
loop_mode=loop_continuous
loop_start=92236
loop_xfade=23205
lovel=1
lpc=xLEPQurzwsLhUsRCe9cnwoLoscDX5bpBIDsnwfnXz8BWe9ZAEeANwAQFCL0JGIg/S9FWv/xC3j4UNSBAKm6xv640nsA//5tArBKjPj4FNcAP8xLAnJX7QFtFgsClm2C9
lpc_rms=-17.94
offset=13708
pitch_keycenter=f#3
sample=Cor_trill_wholetone_FF_F#3.opus
</region>

<region>
hikey=f#4
hivel=127
lokey=f4
loop_end=283018
loop_mode=loop_continuous
loop_start=92000
loop_xfade=23146
lovel=1
lpc=mekcQsn90MLIIdBCu09awkz6uEFqcSfBaCUMQUJbUMD0B+bAwpYGQTvDub/abBHAGrh5wBJBp0DHlHhA6BqVwDX9EcAl3yVAabcyPxzUk8ASDB1BVZzJwN1x2r9I0whA
lpc_rms=-16.56
offset=12758
pitch_keycenter=f#4
sample=Cor_trill_wholetone_FF_F#4.opus
</region>

<region>
hikey=C6
hivel=127
lokey=f5
loop_end=274164
loop_mode=loop_continuous
loop_start=89122
loop_xfade=22422
lovel=1
lpc=UUbUQSdZgsKvX2xCFu6IwbRmnMC417C/c9SIQRa8usH14ItB/bHnwPwrakB1Tf7AiElUQSBpT8G19LNAaJrgQBQMLMEr+uhApmmGwO4iuT0ZNXBAJ7Quv94M/7+y/co/
lpc_rms=-19.30
pitch_keycenter=g5
sample=Cor_trill_wholetone_FF_F5.opus
</region>

<region>
hikey=g#3
hivel=127
lokey=g3
loop_end=271152
loop_mode=loop_continuous
loop_start=88142
loop_xfade=22175
lovel=1
lpc=gNj4Qer3ocJ4n5hCfEsAwpKgBUHOupPAouSsQHcP379K2p3AR/AIQfrXBsHFA1lAZxlvQIw/3sCYHbJAohY1P8WRrsAfegtAt6z/vvMGLkAtOGbAGLmiQGxrc8DnZzs/
lpc_rms=-19.38
offset=4794
pitch_keycenter=g#3
sample=Cor_trill_wholetone_FF_G#3.opus
</region>

<region>
hikey=g#4
hivel=127
lokey=g4
loop_end=268150
loop_mode=loop_continuous
loop_start=87167
loop_xfade=21930
lovel=1
lpc=k+7vQe5BkMIqdX1C24XwwazhdEFgaBLBckTNQOSvLcDbGT/A7lvEQKB9fMA2ApO9jlm6vnY2wT+DB6M/OgpVv8kbhj9JD5HA22OXP2Q9ib2QM69A39lAwD3MHcC4R9c/
lpc_rms=-16.83
offset=4245
pitch_keycenter=g#4
sample=Cor_trill_wholetone_FF_G#4.opus
</region>
</group>